<svg preserveAspectRatio="none" overflow="visible" style="display: block;" width="24" height="24" viewBox="0 0 24 24" fill="none" xmlns="http://www.w3.org/2000/svg">
<g id="solid">
<path id="Vector" d="M19.6 8.2H4.4C3.40589 8.2 2.6 9.00589 2.6 10V19.5C2.6 20.4941 3.40589 21.3 4.4 21.3H19.6C20.5941 21.3 21.4 20.4941 21.4 19.5V10C21.4 9.00589 20.5941 8.2 19.6 8.2Z" fill="#123F42"/>
<path id="Vector_2" d="M12 8.5C12 8.5 10.5 2.7 8 2.7C7.31044 2.7 6.64912 2.97393 6.16152 3.46152C5.67393 3.94912 5.4 4.61044 5.4 5.3C5.4 5.98956 5.67393 6.65088 6.16152 7.13848C6.64912 7.62607 7.31044 7.9 8 7.9L12 8.5ZM12 8.5C12 8.5 13.5 2.7 16 2.7C16.6896 2.7 17.3509 2.97393 17.8385 3.46152C18.3261 3.94912 18.6 4.61044 18.6 5.3C18.6 5.98956 18.3261 6.65088 17.8385 7.13848C17.3509 7.62607 16.6896 7.9 16 7.9L12 8.5Z" fill="#123F42"/>
<path id="Vector_3" d="M12 8.5V21.3M2.6 12.6H21.4" stroke="white" stroke-width="1.8"/>
</g>
</svg>
